<svg width="96" height="96" viewBox="0 0 96 96" fill="none" xmlns="http://www.w3.org/2000/svg">
<path d="M81.3687 19.8702L81.3332 21.1113L86.5876 23.8288L86.1492 19.6381L86.0654 18.8935L85.9719 17.9361L84.3053 17.3333C84.3053 17.3333 81.7458 20.0701 81.3687 19.8702Z" fill="#547BA3"/>
<path d="M85.5892 18.1498C80.3255 11.5214 73.4027 6.40276 65.5228 3.31282C57.6428 0.222876 49.0859 -0.728452 40.7197 0.555295C32.3535 1.83904 24.4755 5.31221 17.8845 10.6226C11.2936 15.9331 6.22398 22.8919 3.18985 30.7935C0.155707 38.6952 -0.735094 47.2586 0.607768 55.6156C1.95063 63.9725 5.4794 71.8258 10.8363 78.3791C16.1931 84.9324 23.1876 89.9526 31.1105 92.9308C39.0333 95.909 47.6028 96.7393 55.9501 95.3373L55.155 90.6036C47.6425 91.8654 39.93 91.1181 32.7994 88.4378C25.6688 85.7574 19.3738 81.2391 14.5526 75.3412C9.73144 69.4432 6.55555 62.3753 5.34698 54.854C4.1384 47.3328 4.94012 39.6257 7.67085 32.5142C10.4016 25.4027 14.9642 19.1398 20.8961 14.3604C26.828 9.58101 33.9181 6.45516 41.4477 5.29978C48.9773 4.14441 56.6785 5.00061 63.7705 7.78155C70.8624 10.5625 77.093 15.1693 81.8303 21.1348L85.5892 18.1498Z" fill="#547BA3"/>
<path d="M91.1765 14.6667L87.695 18.851L89.1069 27.9286L81.1576 23.3221L75.9998 25.0532L93.333 34.105L91.1765 14.6667Z" fill="#547BA3"/>
<path d="M3.33321 49.3334C7.3333 63.6856 7.33341 68.6669 19.7713 67.094C20.2097 67.1778 20.632 67.2713 21.0478 67.3551C21.7312 67.4744 22.4049 67.6517 23.069 67.887C27.2371 69.2345 30.7121 72.1614 32.8268 76.0619C32.8751 76.1554 32.9203 76.2392 32.9815 76.3456C33.5618 77.4674 34.2226 78.6376 35.0027 79.8078C39.5866 86.7772 47.0069 91.4118 55.3334 90.6671L56 95.3338C38.6667 98.0005 28.8684 92.135 22.6667 88.0005C20.6667 86.6671 19.3038 85.5007 17.4503 84.0952C16.0448 83.0217 14.6619 81.7806 13.3402 80.3848C2.77975 69.4471 -0.666881 34.9812 3.33321 49.3334Z" fill="#547BA3"/>
</svg>
