<svg width="491" height="545" viewBox="0 0 491 545" fill="none" xmlns="http://www.w3.org/2000/svg">
<path d="M32.4531 145.328C101.598 13.6675 264.721 -37.524 396.645 30.7314L398.195 31.54L398.197 31.541C400.081 32.5392 401.936 33.4995 403.661 34.5078L405.03 35.2676C405.48 35.5212 405.923 35.7754 406.361 36.0293L408.956 37.5449V37.5459C422.836 45.676 435.779 54.8093 447.657 64.8975L455.95 67.8975L456.247 68.0049L456.278 68.3193L456.747 73.124L457.168 76.8662L457.169 76.8701L459.342 97.6602L459.375 97.6777V97.998L458.852 98.0244L458.645 98.4258L432.239 84.7695L431.96 84.625L431.969 84.3105L432.14 78.3184C421.829 69.7949 410.689 62.0215 398.732 55.0791L398.728 55.0762C397.118 54.117 395.589 53.1835 393.88 52.2324V52.2314C392.193 51.3302 390.57 50.3915 388.797 49.5049L388.787 49.5C323.68 15.2568 248.275 11.1659 179.01 38.7168C133.238 56.9076 93.5931 88.4775 65.8105 129.122L64.4961 131.064C25.4503 189.35 14.1975 256.655 26.29 318.916C26.3228 319.043 26.3415 319.14 26.3555 319.22L26.3955 319.418L26.4004 319.435L26.4043 319.453C34.919 362.832 68.8993 397.042 111.98 406.735H111.979C114.173 407.155 116.306 407.626 118.371 408.043C121.833 408.647 125.247 409.546 128.61 410.737H128.609C149.347 417.445 166.686 431.885 177.414 451.133L177.92 452.054L177.925 452.062L178.284 452.741C178.408 452.969 178.54 453.204 178.691 453.468L178.697 453.478L178.702 453.487C181.43 458.762 184.512 464.246 188.106 469.74L188.832 470.839L188.833 470.842C211.765 505.707 252.425 524.613 294.093 520.887H294.094C298.947 520.466 303.875 519.933 308.654 519.174L309.233 519.082V540.645L308.803 540.704C244.646 549.677 179.305 536.959 131.376 512.58V512.579C131.368 512.575 131.36 512.571 131.352 512.567L131.346 512.58C119.736 506.751 109.212 500.141 99.8721 493.06L99.8711 493.058C92.7861 487.646 85.8328 481.408 79.1572 474.392L79.1895 474.36L79.1885 474.359V474.358C26.0213 419.289 -12.3247 319.827 4.50781 230.308L4.55273 230.312C8.96889 201.396 18.1079 172.71 32.4531 145.329V145.328ZM479.103 46.8613L489.94 144.548L490.044 145.48L489.212 145.046L402.104 99.5566L401.064 99.0127L402.178 98.6396L428.098 89.9395L428.312 89.8682L428.507 89.9814L467.551 112.605L460.616 68.0215L460.581 67.7979L460.726 67.625L478.222 46.5967L478.974 45.6934L479.103 46.8613Z" fill="white" stroke="white"/>
</svg>
