<svg width="30" height="36" viewBox="0 0 30 36" fill="none" xmlns="http://www.w3.org/2000/svg">
<path d="M10.2165 25.0812C10.6899 25.4402 11.2235 25.7752 11.8121 26.0708L4.26313 35.9062H0L9.16681 24.1352C9.50519 24.4909 9.85757 24.807 10.2165 25.0812Z" fill="url(#paint0_linear_219_159)"/>
<path d="M24.0795 10.9637V35.9061H20.8151V14.341L14.1446 23.0319C14.1446 23.0319 14.1438 23.0311 14.1438 23.0303C13.6045 22.0349 12.717 21.2865 11.6524 20.9423L19.4196 10.9687L24.0795 10.9637Z" fill="url(#paint1_linear_219_159)"/>
<path d="M28.4464 5.0228L27.1044 4.32874L27.1135 4.01177C26.5857 3.57458 26.0152 3.1761 25.4026 2.82043C25.3211 2.77185 25.2429 2.7241 25.1556 2.67552C25.0708 2.63024 24.9868 2.58166 24.8963 2.53638C21.5808 0.792597 17.7408 0.584298 14.2137 1.98723C11.8459 2.92828 9.79994 4.57244 8.38219 6.69001C6.39388 9.65807 5.82085 13.0855 6.43669 16.2561C6.43998 16.2685 6.43998 16.2742 6.44245 16.2833C6.87716 18.498 8.61189 20.2443 10.811 20.7391C10.9229 20.7605 11.0308 20.7844 11.137 20.8058C11.3115 20.8362 11.4836 20.8815 11.6532 20.9416C12.7178 21.2858 13.6053 22.0333 14.1454 23.0296C14.1578 23.0534 14.1693 23.0748 14.1849 23.102C14.3331 23.3885 14.5019 23.6874 14.7011 23.9863C15.8719 25.7663 17.9475 26.7312 20.0741 26.541C20.3211 26.5196 20.5722 26.4924 20.8159 26.4537V27.4977C17.5605 27.953 14.245 27.3075 11.8138 26.0709C11.2259 25.7753 10.6916 25.4402 10.2182 25.0813C9.85922 24.8071 9.50601 24.4901 9.16846 24.1336C6.47127 21.3401 4.52577 16.2932 5.37955 11.7526V11.7674C5.60267 10.2953 6.06702 8.83476 6.7973 7.44088C10.3186 0.735788 18.6448 -1.85519 25.3507 1.66861C25.4471 1.71965 25.5409 1.76823 25.6282 1.81927C25.7221 1.87032 25.8093 1.92219 25.8966 1.97323C26.6022 2.38654 27.26 2.85089 27.8635 3.36382L28.2892 3.51778L28.313 3.7623L28.3344 3.95249L28.4464 5.02362V5.0228Z" fill="url(#paint2_linear_219_159)"/>
<path d="M29.4492 2.42758L28.56 3.49625L28.9206 5.81471L26.8903 4.63819L25.573 5.08031L30 7.39218L29.4492 2.42758Z" fill="url(#paint3_linear_219_159)"/>
<defs>
<linearGradient id="paint0_linear_219_159" x1="0" y1="0.0939941" x2="30" y2="0.0939941" gradientUnits="userSpaceOnUse">
<stop stop-color="#547BA3"/>
<stop offset="1" stop-color="#7597BB"/>
</linearGradient>
<linearGradient id="paint1_linear_219_159" x1="0" y1="0.0939941" x2="30" y2="0.0939941" gradientUnits="userSpaceOnUse">
<stop stop-color="#547BA3"/>
<stop offset="1" stop-color="#7597BB"/>
</linearGradient>
<linearGradient id="paint2_linear_219_159" x1="0" y1="0.0939941" x2="30" y2="0.0939941" gradientUnits="userSpaceOnUse">
<stop stop-color="#547BA3"/>
<stop offset="1" stop-color="#7597BB"/>
</linearGradient>
<linearGradient id="paint3_linear_219_159" x1="0" y1="0.0939941" x2="30" y2="0.0939941" gradientUnits="userSpaceOnUse">
<stop stop-color="#547BA3"/>
<stop offset="1" stop-color="#7597BB"/>
</linearGradient>
</defs>
</svg>
